<svg xmlns="http://www.w3.org/2000/svg"  viewBox="0 0 64 64" width="48px" height="48px"><g data-name="07-Book"><path fill="#eee0d3" d="M57,55a2,2,0,0,1,0,4H55V55Z"/><polygon fill="#393d48" points="11 55 11 59 5 57 11 55"/><rect width="44" height="4" x="11" y="55" fill="#fbb962"/><path fill="#c7b7aa" d="M57,57H55v2h2a2.006,2.006,0,0,0,2-2,1.973,1.973,0,0,0-.278-1A1.993,1.993,0,0,1,57,57Z"/><polygon fill="#2b2b37" points="5 57 11 59 11 57 5 57"/><rect width="44" height="2" x="11" y="57" fill="#ed9b52"/><polygon fill="#7d7cda" points="55 5 55 21 52 18 49 21 49 5 55 5"/><rect width="6" height="6" x="36" y="13" fill="#fbb962"/><path fill="#555fa3" d="M33.89,48.06A9.932,9.932,0,0,1,38.36,47H59V7h4V51H32V49Z"/><path fill="#555fa3" d="M32,49v2H1V7H5V47H25.64a9.932,9.932,0,0,1,4.47,1.06Z"/><path fill="#fceee0" d="M30.11,6.06A9.932,9.932,0,0,0,25.64,5H5V47H25.64a9.932,9.932,0,0,1,4.47,1.06L32,49V7Z"/><path fill="#fceee0" d="M55,5V21l-3-3-3,3V5H38.36a9.932,9.932,0,0,0-4.47,1.06L32,7V49l1.89-.94A9.932,9.932,0,0,1,38.36,47H59V5ZM36,13h6v6H36Z"/><path fill="#eee0d3" d="M29.689,42.845A7.994,7.994,0,0,0,26.111,42H18a8,8,0,0,1-8-8V5H5V47H25.64a9.932,9.932,0,0,1,4.47,1.06L32,49V44Z"/><path fill="#eee0d3" d="M37,34V19H36V13h1V5.1a9.884,9.884,0,0,0-3.11.957L32,7V49l1.89-.94A9.932,9.932,0,0,1,38.36,47H59V42H45A8,8,0,0,1,37,34Z"/><path fill="#232560" d="M35.155,49.369A19.029,19.029,0,0,1,38.881,49H61V7H59V47H38.36a9.932,9.932,0,0,0-4.47,1.06L32,49v1Z"/><path fill="#232560" d="M25.119,49a19.029,19.029,0,0,1,3.726.369L32,50V49l-1.89-.94A9.932,9.932,0,0,0,25.64,47H5V7H3V49Z"/><polygon fill="#d6c4b7" points="49 21 49 5 48 5 48 23 51 20 54 23 54 20 52 18 49 21"/><rect width="2" height="2" x="4" y="12"/><path d="M63,6H60V5a1,1,0,0,0-1-1H38.361a11.053,11.053,0,0,0-4.92,1.161L32,5.882l-1.441-.721A11.053,11.053,0,0,0,25.639,4H5A1,1,0,0,0,4,5V6H1A1,1,0,0,0,0,7V51a1,1,0,0,0,1,1H63a1,1,0,0,0,1-1V7A1,1,0,0,0,63,6ZM50,6h4V18.586l-1.293-1.293a1,1,0,0,0-1.414,0L50,18.586ZM2,8H4v2H6V6H25.639a9.05,9.05,0,0,1,4.025.95L31,7.618V47.382l-.441-.221A11.053,11.053,0,0,0,25.639,46H6V16H4V47a1,1,0,0,0,1,1H25.639a9.05,9.05,0,0,1,4.025.95L31,49.618V50H2ZM62,50H33v-.382l1.336-.668A9.05,9.05,0,0,1,38.361,48H59a1,1,0,0,0,1-1V44H58v2H38.361a11.053,11.053,0,0,0-4.92,1.161L33,47.382V7.618l1.336-.668A9.05,9.05,0,0,1,38.361,6H48V21a1,1,0,0,0,1.707.707L52,19.414l2.293,2.293A1,1,0,0,0,56,21V6h2V42h2V8h2Z"/><path d="M10,16h2v1h2V12a2,2,0,0,0-2-2H10a2,2,0,0,0-2,2v5h2Zm2-4v2H10V12Z"/><rect width="21" height="2" x="8" y="19"/><rect width="21" height="2" x="8" y="23"/><rect width="21" height="2" x="8" y="27"/><rect width="21" height="2" x="8" y="31"/><path d="M36,20h6a1,1,0,0,0,1-1V13a1,1,0,0,0-1-1H36a1,1,0,0,0-1,1v6A1,1,0,0,0,36,20Zm1-6h4v4H37Z"/><rect width="8" height="2" x="35" y="23"/><rect width="8" height="2" x="35" y="27"/><rect width="21" height="2" x="35" y="31"/><rect width="21" height="2" x="35" y="35"/><rect width="21" height="2" x="8" y="35"/><rect width="21" height="2" x="8" y="39"/><path d="M57,54H52v2h2v2H12V56H50V54H11a.979.979,0,0,0-.312.063l0-.012-6,2a1,1,0,0,0,0,1.9l6,2,0-.012A.979.979,0,0,0,11,60H57a3,3,0,0,0,0-6ZM10,56.387v1.226L8.162,57ZM57,58H56V56h1a1,1,0,0,1,0,2Z"/></g></svg>